<?xml version="1.0" encoding="utf-8"?>
<!-- Generator: Adobe Illustrator 21.0.2, SVG Export Plug-In . SVG Version: 6.00 Build 0)  -->
<svg version="1.1" id="Layer_1" xmlns="http://www.w3.org/2000/svg" xmlns:xlink="http://www.w3.org/1999/xlink" x="0px" y="0px"
	 viewBox="0 0 1287 448" style="enable-background:new 0 0 1287 448;" xml:space="preserve">
<style type="text/css">
	.st0{fill:#FFFFFF;}
</style>
<path class="st0" d="M222.4,55.6c0,0-126.2,29.8-165.3,37.3c0,0-21.1,67.1,3.1,150.4h75.3v-27.3l-51.7,0.6c0,0-13.7-52.8-0.6-100.1
	l139.2-32.9c0,0,131.4,27,147,32.9c0,0,7.3,24.9,3.6,71.5l29.8,0.5c0,0,3.7-58.7-7.9-93.2C394.9,95.2,245.7,55.1,222.4,55.6z"/>
<path class="st0" d="M315.7,243.2v-26.9h81.6c0,0-12,127.5-171.2,192.6c0,0-108.3-36.2-154.3-138.4h33.6c0,0,32.8,68.8,120.7,108.4
	c0,0,90.6-30.5,134-135.8"/>
<polygon class="st0" points="142.7,292.8 174.9,292.8 174.9,188.4 225.9,256.5 275.6,188.4 275.6,292.8 309.6,292.8 309.6,137.6 
	275.1,137.6 226.2,206.6 177.2,137.6 142.7,137.6 "/>
</svg>
