<?xml version="1.0" encoding="utf-8"?>
<!-- Generator: Adobe Illustrator 21.0.2, SVG Export Plug-In . SVG Version: 6.00 Build 0)  -->
<svg version="1.1" id="Layer_1" xmlns="http://www.w3.org/2000/svg" xmlns:xlink="http://www.w3.org/1999/xlink" x="0px" y="0px"
	 viewBox="0 0 1691 448" style="enable-background:new 0 0 1691 448;" xml:space="preserve">
<style type="text/css">
	.st0{fill:#FFFFFF;}
</style>
<g>
	<path class="st0" d="M152.6,51.3c0,0-106.2,25.1-139.1,31.4c0,0-17.8,56.5,2.6,126.6h63.4v-23L36,186.8c0,0-11.5-44.5-0.5-84.2
		l117.2-27.7c0,0,110.6,22.8,123.7,27.7c0,0,6.1,20.9,3,60.2l25.1,0.4c0,0,3.1-49.4-6.7-78.5C297.8,84.7,172.2,50.9,152.6,51.3z"/>
	<path class="st0" d="M231.1,209.3v-22.6h68.7c0,0-10.1,107.3-144.1,162.1c0,0-91.1-30.5-129.8-116.5H54c0,0,27.6,57.9,101.6,91.3
		c0,0,76.3-25.7,112.8-114.3"/>
	<polygon class="st0" points="85.5,251 112.6,251 112.6,163.1 155.6,220.4 197.3,163.1 197.3,251 226,251 226,120.4 196.9,120.4 
		155.7,178.4 114.6,120.4 85.5,120.4 	"/>
</g>
<g>
	<path class="st0" d="M382.6,264.5c-10.3-3-18.8-7.1-25.7-12.4l10.4-23.1c14.2,9.9,30.1,14.8,47.8,14.8c9.2,0,16.2-1.5,21.2-4.5
		c4.9-3,7.4-7.1,7.4-12.4c0-4.7-2.3-8.4-6.8-11.1c-4.5-2.6-12.5-5.2-24.1-7.7c-12.9-2.6-23.3-5.8-31-9.6s-13.3-8.4-16.9-13.9
		c-3.5-5.5-5.3-12.3-5.3-20.3c0-8.9,2.5-16.8,7.4-23.8c4.9-7,11.9-12.4,20.8-16.4c8.9-4,19.2-5.9,30.9-5.9c10.4,0,20.5,1.5,30.1,4.6
		c9.7,3.1,17.3,7.2,23,12.3l-10.4,23.1c-13.5-9.9-27.7-14.8-42.5-14.8c-8.5,0-15.2,1.6-20,4.9c-4.9,3.3-7.3,7.8-7.3,13.5
		c0,3.3,0.9,6.1,2.8,8.2c1.9,2.2,5,4.1,9.4,5.7c4.4,1.7,10.6,3.4,18.7,5.2c18.9,4.2,32.5,9.5,40.8,16.1c8.3,6.5,12.4,15.6,12.4,27.1
		c0,13.9-5.4,24.9-16.1,32.8c-10.7,8-25.7,12-44.8,12C403.6,269,392.9,267.5,382.6,264.5z"/>
	<path class="st0" d="M505.9,254.6c-9.6-9.5-14.4-22.3-14.4-38.6c0-10.7,2.3-20.1,6.9-28.3c4.6-8.1,11.1-14.4,19.4-18.9
		c8.3-4.4,18-6.7,29-6.7c7.5,0,14.7,1.1,21.7,3.4c7,2.3,12.6,5.4,16.9,9.3l-8.3,21.5c-4-3.2-8.4-5.7-13.2-7.4
		c-4.8-1.7-9.5-2.6-14.1-2.6c-8.2,0-14.6,2.4-19.1,7.3c-4.5,4.9-6.8,12.1-6.8,21.7c0,9.6,2.3,16.9,6.8,21.8
		c4.5,4.9,10.9,7.4,19.1,7.4c4.6,0,9.3-0.9,14.1-2.6c4.8-1.7,9.2-4.2,13.2-7.4l8.3,21.7c-4.6,3.9-10.4,7-17.5,9.2
		c-7.1,2.2-14.6,3.3-22.5,3.3C528.6,268.8,515.5,264.1,505.9,254.6z"/>
	<path class="st0" d="M672.7,188.1L655,190c-8.8,0.8-14.9,3.3-18.6,7.4c-3.6,4.1-5.4,9.6-5.4,16.4v53.4h-31.5V164.7h30.2V182
		c5.1-11.8,15.8-18.3,31.9-19.4l9.2-0.6L672.7,188.1z"/>
	<path class="st0" d="M762.5,173.1c7.3,7.2,10.9,18.4,10.9,33.6v60.5h-29.8v-15.2c-2.1,5.3-5.6,9.4-10.4,12.4
		c-4.9,3-10.6,4.5-17.1,4.5c-7,0-13.2-1.4-18.9-4.2c-5.6-2.8-10.1-6.7-13.3-11.7c-3.3-5-4.9-10.6-4.9-16.7c0-7.5,1.9-13.4,5.7-17.7
		c3.8-4.3,10-7.4,18.5-9.4c8.5-1.9,20.1-2.9,34.8-2.9h5.4v-3.8c0-6.1-1.3-10.4-4-12.9c-2.6-2.5-7.2-3.8-13.8-3.8
		c-5,0-10.6,0.9-16.7,2.7c-6.1,1.8-12,4.3-17.5,7.5l-8.3-21.1c5.8-3.6,13-6.6,21.6-9.1c8.6-2.4,16.5-3.6,23.9-3.6
		C743.9,162.2,755.2,165.8,762.5,173.1z M737.8,241c3.8-4.1,5.6-9.4,5.6-16v-3.5h-3.5c-11.3,0-19.2,0.9-23.7,2.7
		c-4.5,1.8-6.8,5.1-6.8,9.8c0,3.8,1.3,6.9,3.9,9.4c2.6,2.5,5.8,3.8,9.7,3.8C729.1,247.1,734,245.1,737.8,241z"/>
	<path class="st0" d="M883.8,169c6.9,4.5,12.2,10.8,16.1,19c3.8,8.1,5.7,17.5,5.7,28c0,10.6-1.9,19.8-5.7,27.8
		c-3.8,8-9.1,14.1-16,18.5c-6.8,4.3-14.7,6.5-23.6,6.5c-7,0-13.2-1.4-18.9-4.3c-5.6-2.8-10-6.8-13-12v52.1H797V164.7h31.1v14.4
		c3.1-5.3,7.4-9.4,13.1-12.4c5.7-3,12.1-4.5,19.2-4.5C869.1,162.2,877,164.5,883.8,169z M868.3,237.4c4-4.9,6-12.1,6-21.4
		c0-9.5-2-16.8-6-22c-4-5.2-9.7-7.8-17.1-7.8c-7.4,0-13.1,2.5-17.1,7.6c-4,5.1-6,12.3-6,21.8c0,9.3,2,16.5,6,21.6
		c4,5.1,9.7,7.6,17.1,7.6C858.6,244.8,864.3,242.3,868.3,237.4z"/>
	<path class="st0" d="M1017,221.9h-66.7c1,8.2,3.6,14.1,8,17.8c4.4,3.7,10.6,5.5,18.7,5.5c5.3,0,10.5-0.9,15.7-2.6
		c5.2-1.7,10-4.2,14.3-7.4l8.3,21.1c-5,3.9-11.1,7-18.2,9.2c-7.2,2.2-14.4,3.3-21.6,3.3c-17.2,0-30.8-4.8-40.8-14.3
		c-9.9-9.5-14.9-22.5-14.9-38.9c0-10.4,2.2-19.7,6.5-27.7c4.3-8.1,10.3-14.4,17.9-18.9c7.6-4.5,16.3-6.8,26.1-6.8
		c14.3,0,25.7,4.7,34.1,14c8.4,9.3,12.6,22,12.6,38V221.9z M956.8,189.6c-3.5,3.8-5.7,9.4-6.6,16.6h40.2c-0.4-7.4-2.3-12.9-5.5-16.7
		c-3.3-3.8-7.9-5.6-13.9-5.6C965.1,183.9,960.4,185.8,956.8,189.6z"/>
	<path class="st0" d="M1159.2,120.1h25.2v147h-28.6V180l-33.8,63h-20.9l-33.8-62.1v86.3h-28.6v-147h25.7l47.3,89.9L1159.2,120.1z"/>
	<path class="st0" d="M1290.9,173.1c7.3,7.2,10.9,18.4,10.9,33.6v60.5H1272v-15.2c-2.1,5.3-5.6,9.4-10.4,12.4
		c-4.9,3-10.6,4.5-17.1,4.5c-7,0-13.2-1.4-18.9-4.2c-5.6-2.8-10.1-6.7-13.3-11.7c-3.3-5-4.9-10.6-4.9-16.7c0-7.5,1.9-13.4,5.7-17.7
		c3.8-4.3,10-7.4,18.5-9.4c8.5-1.9,20.1-2.9,34.8-2.9h5.4v-3.8c0-6.1-1.3-10.4-4-12.9c-2.6-2.5-7.2-3.8-13.8-3.8
		c-5,0-10.6,0.9-16.7,2.7c-6.1,1.8-12,4.3-17.5,7.5l-8.3-21.1c5.8-3.6,13-6.6,21.6-9.1c8.6-2.4,16.5-3.6,23.9-3.6
		C1272.3,162.2,1283.6,165.8,1290.9,173.1z M1266.2,241c3.8-4.1,5.6-9.4,5.6-16v-3.5h-3.5c-11.3,0-19.2,0.9-23.7,2.7
		c-4.5,1.8-6.8,5.1-6.8,9.8c0,3.8,1.3,6.9,3.9,9.4c2.6,2.5,5.8,3.8,9.7,3.8C1257.5,247.1,1262.4,245.1,1266.2,241z"/>
	<path class="st0" d="M1338.9,265.6c-7.9-2.2-14.6-5.2-20.3-9.3l8.3-21.7c5.6,3.8,11.7,6.7,18.4,8.8c6.7,2.1,13.4,3.1,20.2,3.1
		c4.9,0,8.7-0.8,11.4-2.4c2.7-1.6,4.1-3.8,4.1-6.6c0-2.5-0.9-4.4-2.8-5.8c-1.9-1.4-5.4-2.6-10.5-3.8l-16.7-3.8
		c-9.9-2.2-17.1-5.7-21.8-10.3c-4.7-4.7-7-11-7-19.1c0-6.4,1.8-12,5.5-16.9c3.7-4.9,8.9-8.7,15.6-11.5c6.7-2.8,14.4-4.2,23-4.2
		c7.4,0,14.5,1.1,21.5,3.3c7,2.2,13.2,5.4,18.8,9.4l-8.3,20.9c-10.8-7.5-21.6-11.3-32.1-11.3c-4.9,0-8.7,0.8-11.5,2.5
		c-2.8,1.7-4.2,4-4.2,7.1c0,2.2,0.8,4,2.5,5.2c1.7,1.3,4.6,2.4,8.8,3.5l17.3,4c10.4,2.4,18,5.9,22.8,10.7c4.8,4.8,7.2,11.3,7.2,19.5
		c0,9.9-3.9,17.6-11.8,23.3c-7.9,5.6-18.7,8.4-32.4,8.4C1355.4,268.8,1346.7,267.7,1338.9,265.6z"/>
	<path class="st0" d="M1492.7,245L1491,268c-4,0.6-8.1,0.8-12.1,0.8c-15.6,0-26.9-3.4-34.1-10.2c-7.2-6.8-10.7-17.2-10.7-31.1v-39.2
		h-19.4v-23.6h19.4v-30h31.5v30h25.7v23.6h-25.7v39c0,12.2,5.7,18.4,17.1,18.4C1485.9,245.6,1489.2,245.4,1492.7,245z"/>
	<path class="st0" d="M1598.8,221.9h-66.7c1,8.2,3.6,14.1,8,17.8c4.4,3.7,10.6,5.5,18.7,5.5c5.3,0,10.5-0.9,15.7-2.6
		c5.2-1.7,10-4.2,14.3-7.4l8.3,21.1c-5,3.9-11.1,7-18.2,9.2c-7.2,2.2-14.4,3.3-21.6,3.3c-17.2,0-30.8-4.8-40.8-14.3
		c-9.9-9.5-14.9-22.5-14.9-38.9c0-10.4,2.2-19.7,6.5-27.7c4.3-8.1,10.3-14.4,17.9-18.9c7.6-4.5,16.3-6.8,26.1-6.8
		c14.3,0,25.7,4.7,34.1,14c8.4,9.3,12.6,22,12.6,38V221.9z M1538.7,189.6c-3.5,3.8-5.7,9.4-6.6,16.6h40.2
		c-0.4-7.4-2.3-12.9-5.5-16.7c-3.3-3.8-7.9-5.6-13.9-5.6C1547,183.9,1542.2,185.8,1538.7,189.6z"/>
	<path class="st0" d="M1691,188.1l-17.7,1.9c-8.8,0.8-14.9,3.3-18.6,7.4c-3.6,4.1-5.4,9.6-5.4,16.4v53.4h-31.5V164.7h30.2V182
		c5.1-11.8,15.8-18.3,31.9-19.4l9.2-0.6L1691,188.1z"/>
</g>
</svg>
